<svg width="479" height="479" viewBox="0 0 479 479" fill="none" xmlns="http://www.w3.org/2000/svg">
<g clip-path="url(#clip0)">
<path d="M427.501 200.695C429.277 189.457 430.385 177.135 430.664 163.318C430.557 104.072 402.196 83.108 396.739 73.28C404.776 28.39 395.408 7.97095 391.051 0.980955C374.981 -4.72305 335.141 15.703 313.373 30.082C277.882 19.693 202.879 20.707 174.752 32.771C122.856 -4.38905 95.4078 1.27695 95.4078 1.27695C95.4078 1.27695 77.6629 33.097 90.7169 79.648C73.6419 101.407 60.9149 116.791 60.9149 157.597C60.9149 167.37 61.5218 176.605 62.5518 185.49C77.2568 262.808 138.522 296.164 198.702 301.916C189.646 308.797 178.774 321.819 177.27 336.908C165.891 344.265 143.002 346.697 125.203 341.101C100.264 333.221 90.7168 283.835 53.3698 290.88C45.2888 292.392 46.8949 297.722 53.8929 302.266C65.2709 309.646 75.9869 318.82 84.2469 338.451C90.5909 353.523 103.934 380.433 146.12 380.433C162.867 380.433 174.597 378.454 174.597 378.454C174.597 378.454 174.916 416.86 174.916 431.839C174.916 449.077 151.652 453.917 151.652 462.187C151.652 465.476 159.352 465.788 165.54 465.788C177.769 465.788 203.213 455.602 203.213 437.685C203.213 423.448 203.44 375.604 203.44 367.225C203.44 348.918 213.251 343.089 213.251 343.089C213.251 343.089 214.452 440.816 210.89 453.918C206.713 469.326 199.146 467.137 199.146 473.994C199.146 484.227 229.735 476.496 239.881 454.097C247.73 436.602 244.215 340.766 244.215 340.766L252.398 340.588C252.398 340.588 252.492 384.48 252.21 404.532C251.915 425.301 249.772 451.557 262.108 463.949C270.205 472.099 295.011 486.4 295.011 473.331C295.011 465.757 277.64 459.498 277.64 438.978V344.45C288.193 344.45 290.374 375.522 290.374 375.522L294.178 433.249C294.178 433.249 291.652 454.314 316.934 463.105C325.859 466.231 344.952 467.081 345.847 461.834C346.744 456.574 322.857 448.796 322.63 432.492C322.507 422.562 323.075 416.75 323.075 373.558C323.075 330.39 317.276 314.421 297.068 301.695C355.669 295.681 416.536 269.51 427.501 200.695Z" fill="white"/>
</g>
<defs>
<clipPath id="clip0">
<rect width="478.613" height="478.613" fill="white"/>
</clipPath>
</defs>
</svg>
